<svg xmlns="http://www.w3.org/2000/svg" xmlns:xlink="http://www.w3.org/1999/xlink" width="500" zoomAndPan="magnify" viewBox="0 0 375 374.999991" height="500" preserveAspectRatio="xMidYMid meet" version="1.2"><defs/><g id="e009ef709f"><path style=" stroke:none;fill-rule:evenodd;fill:#1dc690;fill-opacity:1;" d="M 82.886719 154.089844 C 75.789062 155.53125 70.175781 159.3125 65.761719 165.628906 C 64.789062 167.019531 63.125 170.234375 63.125 170.722656 C 63.125 171.109375 63.953125 171.519531 67.078125 172.671875 C 70.730469 174.023438 70.460938 174.039062 71.339844 172.414062 C 75.242188 165.199219 82.308594 161.339844 89.996094 162.226562 C 92.773438 162.546875 95.199219 163.28125 97.660156 164.554688 C 98.632812 165.058594 99.53125 165.40625 99.652344 165.332031 C 99.945312 165.152344 104.453125 159.40625 104.597656 159.027344 C 104.800781 158.5 100.984375 156.453125 97.554688 155.25 C 92.878906 153.613281 87.378906 153.175781 82.886719 154.089844 Z M 82.886719 154.089844 "/><path style=" stroke:none;fill-rule:evenodd;fill:#1dc690;fill-opacity:1;" d="M 104.546875 163.183594 C 103.316406 164.691406 102.117188 166.171875 101.882812 166.476562 L 101.460938 167.027344 L 102.570312 168.289062 C 104.027344 169.941406 105.925781 172.710938 106.65625 174.242188 C 106.976562 174.914062 107.210938 175.496094 107.171875 175.53125 C 107.136719 175.566406 101.886719 175.667969 95.507812 175.761719 L 83.910156 175.929688 L 83.574219 175.929688 C 83.574219 176.53125 83.574219 178.71875 83.574219 180.683594 L 83.574219 184.257812 L 97.394531 197.980469 C 104.996094 205.527344 111.292969 211.707031 111.386719 211.707031 C 111.484375 211.707031 111.558594 209.207031 111.558594 206.152344 L 111.558594 200.601562 L 108.199219 197.136719 C 106.351562 195.230469 103.851562 192.652344 102.648438 191.402344 C 101.441406 190.15625 99.359375 188.011719 98.023438 186.640625 L 95.59375 184.144531 L 106.03125 184.03125 L 116.472656 183.917969 L 116.425781 181.195312 C 116.304688 174.316406 113.800781 167.949219 108.992188 162.308594 C 108.117188 161.28125 107.261719 160.4375 107.09375 160.4375 C 106.925781 160.4375 105.78125 161.671875 104.546875 163.183594 Z M 104.546875 163.183594 "/><path style=" stroke:none;fill-rule:nonzero;fill:#ffffff;fill-opacity:1;" d="M 100.40625 207.589844 C 100.554688 207.695312 100.527344 207.921875 100.355469 207.984375 C 95.492188 209.726562 87.179688 210.558594 82.277344 209.574219 C 77.234375 208.5625 72.589844 206.140625 68.890625 202.59375 C 65.191406 199.046875 62.589844 194.523438 61.398438 189.554688 C 60.222656 184.675781 60.339844 178.617188 61.945312 173.832031 C 61.988281 173.699219 62.140625 173.640625 62.265625 173.703125 C 62.84375 174.003906 64.375 174.785156 65.523438 175.285156 C 66.84375 175.855469 68.910156 176.570312 69.582031 176.796875 C 69.699219 176.839844 69.761719 176.96875 69.722656 177.089844 C 68.636719 180.375 68.695312 184.277344 69.5 187.632812 C 70.328125 191.0625 72.125 194.1875 74.679688 196.640625 C 77.234375 199.089844 80.445312 200.765625 83.925781 201.464844 C 87.386719 202.15625 88.402344 202.050781 93.90625 201.941406 C 93.972656 201.9375 94.039062 201.964844 94.082031 202.011719 C 94.417969 202.378906 95.90625 203.988281 97.054688 205 C 98.078125 205.90625 99.703125 207.085938 100.40625 207.589844 Z M 100.40625 207.589844 "/><g style="fill:#ffffff;fill-opacity:1;"><g transform="translate(120.646747, 203.192653)"><path style="stroke:none" d="M 29.9375 -28.21875 L 29.9375 11.796875 L 24.40625 11.796875 L 24.40625 -3.96875 C 23.582031 -2.820312 22.375 -1.785156 20.78125 -0.859375 C 19.195312 0.0664062 17.421875 0.53125 15.453125 0.53125 C 12.953125 0.53125 10.695312 -0.09375 8.6875 -1.34375 C 6.6875 -2.59375 5.09375 -4.328125 3.90625 -6.546875 C 2.726562 -8.765625 2.140625 -11.285156 2.140625 -14.109375 C 2.140625 -16.972656 2.722656 -19.503906 3.890625 -21.703125 C 5.054688 -23.898438 6.628906 -25.625 8.609375 -26.875 C 10.597656 -28.132812 12.828125 -28.765625 15.296875 -28.765625 C 17.265625 -28.765625 19.039062 -28.359375 20.625 -27.546875 C 22.21875 -26.742188 23.476562 -25.789062 24.40625 -24.6875 L 24.40625 -28.21875 Z M 16.046875 -4.5625 C 17.765625 -4.5625 19.265625 -4.976562 20.546875 -5.8125 C 21.835938 -6.65625 22.835938 -7.789062 23.546875 -9.21875 C 24.265625 -10.65625 24.625 -12.285156 24.625 -14.109375 C 24.625 -15.929688 24.265625 -17.566406 23.546875 -19.015625 C 22.835938 -20.460938 21.835938 -21.609375 20.546875 -22.453125 C 19.265625 -23.296875 17.765625 -23.71875 16.046875 -23.71875 C 14.359375 -23.71875 12.867188 -23.296875 11.578125 -22.453125 C 10.296875 -21.609375 9.285156 -20.460938 8.546875 -19.015625 C 7.816406 -17.566406 7.453125 -15.929688 7.453125 -14.109375 C 7.453125 -12.285156 7.816406 -10.65625 8.546875 -9.21875 C 9.285156 -7.789062 10.296875 -6.65625 11.578125 -5.8125 C 12.867188 -4.976562 14.359375 -4.5625 16.046875 -4.5625 Z M 16.046875 -4.5625 "/></g></g><g style="fill:#ffffff;fill-opacity:1;"><g transform="translate(152.413403, 203.192653)"><path style="stroke:none" d="M 33.109375 -25.59375 C 33.109375 -23.34375 32.4375 -21.25 31.09375 -19.3125 C 29.75 -17.382812 28.003906 -15.957031 25.859375 -15.03125 L 34.609375 0.046875 L 27.578125 0 L 19.640625 -14.109375 L 11.046875 -14.109375 L 11.046875 0 L 5.265625 0 L 5.265625 -37.5625 L 21.25 -37.5625 C 23.21875 -37.5625 25.101562 -37.078125 26.90625 -36.109375 C 28.71875 -35.140625 30.203125 -33.757812 31.359375 -31.96875 C 32.523438 -30.1875 33.109375 -28.0625 33.109375 -25.59375 Z M 20.28125 -31.984375 L 11.046875 -31.984375 L 11.046875 -19.6875 L 21.78125 -19.6875 C 23.5 -19.6875 24.832031 -20.296875 25.78125 -21.515625 C 26.726562 -22.734375 27.203125 -24.109375 27.203125 -25.640625 C 27.203125 -27.609375 26.519531 -29.15625 25.15625 -30.28125 C 23.800781 -31.414062 22.175781 -31.984375 20.28125 -31.984375 Z M 20.28125 -31.984375 "/></g></g><g style="fill:#ffffff;fill-opacity:1;"><g transform="translate(187.667967, 203.192653)"><path style="stroke:none" d="M 30.09375 -28.171875 L 30.09375 0 L 24.515625 0 L 24.515625 -4.34375 C 23.660156 -3.164062 22.390625 -2.054688 20.703125 -1.015625 C 19.023438 0.015625 17.078125 0.53125 14.859375 0.53125 C 12.503906 0.53125 10.347656 -0.09375 8.390625 -1.34375 C 6.441406 -2.59375 4.894531 -4.328125 3.75 -6.546875 C 2.601562 -8.765625 2.03125 -11.304688 2.03125 -14.171875 C 2.03125 -17.023438 2.617188 -19.550781 3.796875 -21.75 C 4.984375 -23.957031 6.613281 -25.675781 8.6875 -26.90625 C 10.757812 -28.144531 13.125 -28.765625 15.78125 -28.765625 C 17.738281 -28.765625 19.457031 -28.332031 20.9375 -27.46875 C 22.425781 -26.613281 23.617188 -25.613281 24.515625 -24.46875 L 24.515625 -28.171875 Z M 16.15625 -4.5625 C 17.863281 -4.5625 19.363281 -4.976562 20.65625 -5.8125 C 21.945312 -6.65625 22.945312 -7.800781 23.65625 -9.25 C 24.375 -10.695312 24.734375 -12.335938 24.734375 -14.171875 C 24.734375 -15.953125 24.375 -17.554688 23.65625 -18.984375 C 22.945312 -20.421875 21.945312 -21.554688 20.65625 -22.390625 C 19.363281 -23.234375 17.863281 -23.65625 16.15625 -23.65625 C 14.507812 -23.65625 13.039062 -23.242188 11.75 -22.421875 C 10.457031 -21.597656 9.453125 -20.472656 8.734375 -19.046875 C 8.023438 -17.617188 7.671875 -15.992188 7.671875 -14.171875 C 7.671875 -12.335938 8.023438 -10.695312 8.734375 -9.25 C 9.453125 -7.800781 10.457031 -6.65625 11.75 -5.8125 C 13.039062 -4.976562 14.507812 -4.5625 16.15625 -4.5625 Z M 16.15625 -4.5625 "/></g></g><g style="fill:#ffffff;fill-opacity:1;"><g transform="translate(219.595608, 203.192653)"><path style="stroke:none" d="M 18.5625 -28.65625 C 21.070312 -28.65625 23.316406 -28.035156 25.296875 -26.796875 C 27.285156 -25.566406 28.847656 -23.859375 29.984375 -21.671875 C 31.128906 -19.492188 31.703125 -16.972656 31.703125 -14.109375 C 31.703125 -11.285156 31.128906 -8.769531 29.984375 -6.5625 C 28.847656 -4.363281 27.296875 -2.640625 25.328125 -1.390625 C 23.359375 -0.140625 21.15625 0.484375 18.71875 0.484375 C 16.71875 0.484375 14.90625 0.0546875 13.28125 -0.796875 C 11.65625 -1.660156 10.375 -2.644531 9.4375 -3.75 L 9.4375 11.796875 L 3.859375 11.796875 L 3.859375 -28.21875 L 9.4375 -28.21875 L 9.4375 -24.09375 C 10.257812 -25.269531 11.492188 -26.320312 13.140625 -27.25 C 14.785156 -28.1875 16.59375 -28.65625 18.5625 -28.65625 Z M 17.8125 -23.5625 C 16.132812 -23.5625 14.640625 -23.148438 13.328125 -22.328125 C 12.023438 -21.503906 11.003906 -20.382812 10.265625 -18.96875 C 9.535156 -17.550781 9.171875 -15.929688 9.171875 -14.109375 C 9.171875 -12.316406 9.535156 -10.707031 10.265625 -9.28125 C 11.003906 -7.851562 12.023438 -6.71875 13.328125 -5.875 C 14.640625 -5.03125 16.132812 -4.609375 17.8125 -4.609375 C 19.488281 -4.609375 20.972656 -5.03125 22.265625 -5.875 C 23.554688 -6.71875 24.566406 -7.851562 25.296875 -9.28125 C 26.035156 -10.707031 26.40625 -12.316406 26.40625 -14.109375 C 26.40625 -15.929688 26.035156 -17.550781 25.296875 -18.96875 C 24.566406 -20.382812 23.554688 -21.503906 22.265625 -22.328125 C 20.972656 -23.148438 19.488281 -23.5625 17.8125 -23.5625 Z M 17.8125 -23.5625 "/></g></g><g style="fill:#ffffff;fill-opacity:1;"><g transform="translate(251.415926, 203.192653)"><path style="stroke:none" d="M 12.875 0 L 7.34375 0 L 7.34375 -22.796875 L 1.5 -22.796875 L 1.5 -28.171875 L 7.34375 -28.171875 L 7.34375 -35.359375 L 12.875 -35.359375 L 12.875 -28.171875 L 19.421875 -28.171875 L 19.421875 -22.796875 L 12.875 -22.796875 Z M 12.875 0 "/></g></g><g style="fill:#ffffff;fill-opacity:1;"><g transform="translate(269.982201, 203.192653)"><path style="stroke:none" d="M 30.859375 -14.109375 C 30.859375 -11.242188 30.222656 -8.710938 28.953125 -6.515625 C 27.679688 -4.316406 25.960938 -2.59375 23.796875 -1.34375 C 21.628906 -0.09375 19.207031 0.53125 16.53125 0.53125 C 13.84375 0.53125 11.40625 -0.09375 9.21875 -1.34375 C 7.039062 -2.59375 5.316406 -4.316406 4.046875 -6.515625 C 2.773438 -8.710938 2.140625 -11.242188 2.140625 -14.109375 C 2.140625 -16.972656 2.773438 -19.503906 4.046875 -21.703125 C 5.316406 -23.898438 7.039062 -25.625 9.21875 -26.875 C 11.40625 -28.132812 13.84375 -28.765625 16.53125 -28.765625 C 19.207031 -28.765625 21.628906 -28.132812 23.796875 -26.875 C 25.960938 -25.625 27.679688 -23.898438 28.953125 -21.703125 C 30.222656 -19.503906 30.859375 -16.972656 30.859375 -14.109375 Z M 25.21875 -14.109375 C 25.25 -16.003906 24.878906 -17.675781 24.109375 -19.125 C 23.347656 -20.570312 22.304688 -21.695312 20.984375 -22.5 C 19.660156 -23.3125 18.175781 -23.71875 16.53125 -23.71875 C 14.882812 -23.71875 13.390625 -23.3125 12.046875 -22.5 C 10.703125 -21.695312 9.644531 -20.570312 8.875 -19.125 C 8.101562 -17.675781 7.738281 -16.003906 7.78125 -14.109375 C 7.738281 -12.253906 8.101562 -10.597656 8.875 -9.140625 C 9.644531 -7.691406 10.703125 -6.554688 12.046875 -5.734375 C 13.390625 -4.910156 14.882812 -4.5 16.53125 -4.5 C 18.175781 -4.5 19.660156 -4.910156 20.984375 -5.734375 C 22.304688 -6.554688 23.347656 -7.691406 24.109375 -9.140625 C 24.878906 -10.597656 25.25 -12.253906 25.21875 -14.109375 Z M 25.21875 -14.109375 "/></g></g><g style="fill:#ffffff;fill-opacity:1;"><g transform="translate(300.943961, 203.192653)"><path style="stroke:none" d="M 19.640625 -22.21875 C 19.285156 -22.394531 18.847656 -22.546875 18.328125 -22.671875 C 17.804688 -22.796875 17.257812 -22.859375 16.6875 -22.859375 C 15.539062 -22.859375 14.410156 -22.5625 13.296875 -21.96875 C 12.191406 -21.382812 11.269531 -20.546875 10.53125 -19.453125 C 9.800781 -18.359375 9.4375 -17.0625 9.4375 -15.5625 L 9.4375 0 L 3.859375 0 L 3.859375 -28.171875 L 9.4375 -28.171875 L 9.4375 -22.859375 C 10.226562 -24.578125 11.421875 -25.988281 13.015625 -27.09375 C 14.609375 -28.207031 16.28125 -28.765625 18.03125 -28.765625 C 19.351562 -28.765625 20.375 -28.582031 21.09375 -28.21875 Z M 19.640625 -22.21875 "/></g></g></g></svg>