<svg xmlns="http://www.w3.org/2000/svg" xmlns:xlink="http://www.w3.org/1999/xlink" width="500" zoomAndPan="magnify" viewBox="0 0 375 374.999991" height="500" preserveAspectRatio="xMidYMid meet" version="1.2"><defs/><g id="fdc4b81c5d"><g style="fill:#373643;fill-opacity:1;"><g transform="translate(120.646747, 203.192682)"><path style="stroke:none" d="M 29.9375 -28.21875 L 29.9375 11.796875 L 24.40625 11.796875 L 24.40625 -3.96875 C 23.582031 -2.820312 22.375 -1.785156 20.78125 -0.859375 C 19.195312 0.0664062 17.421875 0.53125 15.453125 0.53125 C 12.953125 0.53125 10.695312 -0.09375 8.6875 -1.34375 C 6.6875 -2.59375 5.09375 -4.328125 3.90625 -6.546875 C 2.726562 -8.765625 2.140625 -11.285156 2.140625 -14.109375 C 2.140625 -16.972656 2.722656 -19.503906 3.890625 -21.703125 C 5.054688 -23.898438 6.628906 -25.625 8.609375 -26.875 C 10.597656 -28.132812 12.828125 -28.765625 15.296875 -28.765625 C 17.265625 -28.765625 19.039062 -28.359375 20.625 -27.546875 C 22.21875 -26.742188 23.476562 -25.789062 24.40625 -24.6875 L 24.40625 -28.21875 Z M 16.046875 -4.5625 C 17.765625 -4.5625 19.265625 -4.976562 20.546875 -5.8125 C 21.835938 -6.65625 22.835938 -7.789062 23.546875 -9.21875 C 24.265625 -10.65625 24.625 -12.285156 24.625 -14.109375 C 24.625 -15.929688 24.265625 -17.566406 23.546875 -19.015625 C 22.835938 -20.460938 21.835938 -21.609375 20.546875 -22.453125 C 19.265625 -23.296875 17.765625 -23.71875 16.046875 -23.71875 C 14.359375 -23.71875 12.867188 -23.296875 11.578125 -22.453125 C 10.296875 -21.609375 9.285156 -20.460938 8.546875 -19.015625 C 7.816406 -17.566406 7.453125 -15.929688 7.453125 -14.109375 C 7.453125 -12.285156 7.816406 -10.65625 8.546875 -9.21875 C 9.285156 -7.789062 10.296875 -6.65625 11.578125 -5.8125 C 12.867188 -4.976562 14.359375 -4.5625 16.046875 -4.5625 Z M 16.046875 -4.5625 "/></g></g><g style="fill:#373643;fill-opacity:1;"><g transform="translate(152.413403, 203.192682)"><path style="stroke:none" d="M 33.109375 -25.59375 C 33.109375 -23.34375 32.4375 -21.25 31.09375 -19.3125 C 29.75 -17.382812 28.003906 -15.957031 25.859375 -15.03125 L 34.609375 0.046875 L 27.578125 0 L 19.640625 -14.109375 L 11.046875 -14.109375 L 11.046875 0 L 5.265625 0 L 5.265625 -37.5625 L 21.25 -37.5625 C 23.21875 -37.5625 25.101562 -37.078125 26.90625 -36.109375 C 28.71875 -35.140625 30.203125 -33.757812 31.359375 -31.96875 C 32.523438 -30.1875 33.109375 -28.0625 33.109375 -25.59375 Z M 20.28125 -31.984375 L 11.046875 -31.984375 L 11.046875 -19.6875 L 21.78125 -19.6875 C 23.5 -19.6875 24.832031 -20.296875 25.78125 -21.515625 C 26.726562 -22.734375 27.203125 -24.109375 27.203125 -25.640625 C 27.203125 -27.609375 26.519531 -29.15625 25.15625 -30.28125 C 23.800781 -31.414062 22.175781 -31.984375 20.28125 -31.984375 Z M 20.28125 -31.984375 "/></g></g><g style="fill:#373643;fill-opacity:1;"><g transform="translate(187.667967, 203.192682)"><path style="stroke:none" d="M 30.09375 -28.171875 L 30.09375 0 L 24.515625 0 L 24.515625 -4.34375 C 23.660156 -3.164062 22.390625 -2.054688 20.703125 -1.015625 C 19.023438 0.015625 17.078125 0.53125 14.859375 0.53125 C 12.503906 0.53125 10.347656 -0.09375 8.390625 -1.34375 C 6.441406 -2.59375 4.894531 -4.328125 3.75 -6.546875 C 2.601562 -8.765625 2.03125 -11.304688 2.03125 -14.171875 C 2.03125 -17.023438 2.617188 -19.550781 3.796875 -21.75 C 4.984375 -23.957031 6.613281 -25.675781 8.6875 -26.90625 C 10.757812 -28.144531 13.125 -28.765625 15.78125 -28.765625 C 17.738281 -28.765625 19.457031 -28.332031 20.9375 -27.46875 C 22.425781 -26.613281 23.617188 -25.613281 24.515625 -24.46875 L 24.515625 -28.171875 Z M 16.15625 -4.5625 C 17.863281 -4.5625 19.363281 -4.976562 20.65625 -5.8125 C 21.945312 -6.65625 22.945312 -7.800781 23.65625 -9.25 C 24.375 -10.695312 24.734375 -12.335938 24.734375 -14.171875 C 24.734375 -15.953125 24.375 -17.554688 23.65625 -18.984375 C 22.945312 -20.421875 21.945312 -21.554688 20.65625 -22.390625 C 19.363281 -23.234375 17.863281 -23.65625 16.15625 -23.65625 C 14.507812 -23.65625 13.039062 -23.242188 11.75 -22.421875 C 10.457031 -21.597656 9.453125 -20.472656 8.734375 -19.046875 C 8.023438 -17.617188 7.671875 -15.992188 7.671875 -14.171875 C 7.671875 -12.335938 8.023438 -10.695312 8.734375 -9.25 C 9.453125 -7.800781 10.457031 -6.65625 11.75 -5.8125 C 13.039062 -4.976562 14.507812 -4.5625 16.15625 -4.5625 Z M 16.15625 -4.5625 "/></g></g><g style="fill:#373643;fill-opacity:1;"><g transform="translate(219.595608, 203.192682)"><path style="stroke:none" d="M 18.5625 -28.65625 C 21.070312 -28.65625 23.316406 -28.035156 25.296875 -26.796875 C 27.285156 -25.566406 28.847656 -23.859375 29.984375 -21.671875 C 31.128906 -19.492188 31.703125 -16.972656 31.703125 -14.109375 C 31.703125 -11.285156 31.128906 -8.769531 29.984375 -6.5625 C 28.847656 -4.363281 27.296875 -2.640625 25.328125 -1.390625 C 23.359375 -0.140625 21.15625 0.484375 18.71875 0.484375 C 16.71875 0.484375 14.90625 0.0546875 13.28125 -0.796875 C 11.65625 -1.660156 10.375 -2.644531 9.4375 -3.75 L 9.4375 11.796875 L 3.859375 11.796875 L 3.859375 -28.21875 L 9.4375 -28.21875 L 9.4375 -24.09375 C 10.257812 -25.269531 11.492188 -26.320312 13.140625 -27.25 C 14.785156 -28.1875 16.59375 -28.65625 18.5625 -28.65625 Z M 17.8125 -23.5625 C 16.132812 -23.5625 14.640625 -23.148438 13.328125 -22.328125 C 12.023438 -21.503906 11.003906 -20.382812 10.265625 -18.96875 C 9.535156 -17.550781 9.171875 -15.929688 9.171875 -14.109375 C 9.171875 -12.316406 9.535156 -10.707031 10.265625 -9.28125 C 11.003906 -7.851562 12.023438 -6.71875 13.328125 -5.875 C 14.640625 -5.03125 16.132812 -4.609375 17.8125 -4.609375 C 19.488281 -4.609375 20.972656 -5.03125 22.265625 -5.875 C 23.554688 -6.71875 24.566406 -7.851562 25.296875 -9.28125 C 26.035156 -10.707031 26.40625 -12.316406 26.40625 -14.109375 C 26.40625 -15.929688 26.035156 -17.550781 25.296875 -18.96875 C 24.566406 -20.382812 23.554688 -21.503906 22.265625 -22.328125 C 20.972656 -23.148438 19.488281 -23.5625 17.8125 -23.5625 Z M 17.8125 -23.5625 "/></g></g><g style="fill:#373643;fill-opacity:1;"><g transform="translate(251.415926, 203.192682)"><path style="stroke:none" d="M 12.875 0 L 7.34375 0 L 7.34375 -22.796875 L 1.5 -22.796875 L 1.5 -28.171875 L 7.34375 -28.171875 L 7.34375 -35.359375 L 12.875 -35.359375 L 12.875 -28.171875 L 19.421875 -28.171875 L 19.421875 -22.796875 L 12.875 -22.796875 Z M 12.875 0 "/></g></g><g style="fill:#373643;fill-opacity:1;"><g transform="translate(269.982201, 203.192682)"><path style="stroke:none" d="M 30.859375 -14.109375 C 30.859375 -11.242188 30.222656 -8.710938 28.953125 -6.515625 C 27.679688 -4.316406 25.960938 -2.59375 23.796875 -1.34375 C 21.628906 -0.09375 19.207031 0.53125 16.53125 0.53125 C 13.84375 0.53125 11.40625 -0.09375 9.21875 -1.34375 C 7.039062 -2.59375 5.316406 -4.316406 4.046875 -6.515625 C 2.773438 -8.710938 2.140625 -11.242188 2.140625 -14.109375 C 2.140625 -16.972656 2.773438 -19.503906 4.046875 -21.703125 C 5.316406 -23.898438 7.039062 -25.625 9.21875 -26.875 C 11.40625 -28.132812 13.84375 -28.765625 16.53125 -28.765625 C 19.207031 -28.765625 21.628906 -28.132812 23.796875 -26.875 C 25.960938 -25.625 27.679688 -23.898438 28.953125 -21.703125 C 30.222656 -19.503906 30.859375 -16.972656 30.859375 -14.109375 Z M 25.21875 -14.109375 C 25.25 -16.003906 24.878906 -17.675781 24.109375 -19.125 C 23.347656 -20.570312 22.304688 -21.695312 20.984375 -22.5 C 19.660156 -23.3125 18.175781 -23.71875 16.53125 -23.71875 C 14.882812 -23.71875 13.390625 -23.3125 12.046875 -22.5 C 10.703125 -21.695312 9.644531 -20.570312 8.875 -19.125 C 8.101562 -17.675781 7.738281 -16.003906 7.78125 -14.109375 C 7.738281 -12.253906 8.101562 -10.597656 8.875 -9.140625 C 9.644531 -7.691406 10.703125 -6.554688 12.046875 -5.734375 C 13.390625 -4.910156 14.882812 -4.5 16.53125 -4.5 C 18.175781 -4.5 19.660156 -4.910156 20.984375 -5.734375 C 22.304688 -6.554688 23.347656 -7.691406 24.109375 -9.140625 C 24.878906 -10.597656 25.25 -12.253906 25.21875 -14.109375 Z M 25.21875 -14.109375 "/></g></g><g style="fill:#373643;fill-opacity:1;"><g transform="translate(300.943961, 203.192682)"><path style="stroke:none" d="M 19.640625 -22.21875 C 19.285156 -22.394531 18.847656 -22.546875 18.328125 -22.671875 C 17.804688 -22.796875 17.257812 -22.859375 16.6875 -22.859375 C 15.539062 -22.859375 14.410156 -22.5625 13.296875 -21.96875 C 12.191406 -21.382812 11.269531 -20.546875 10.53125 -19.453125 C 9.800781 -18.359375 9.4375 -17.0625 9.4375 -15.5625 L 9.4375 0 L 3.859375 0 L 3.859375 -28.171875 L 9.4375 -28.171875 L 9.4375 -22.859375 C 10.226562 -24.578125 11.421875 -25.988281 13.015625 -27.09375 C 14.609375 -28.207031 16.28125 -28.765625 18.03125 -28.765625 C 19.351562 -28.765625 20.375 -28.582031 21.09375 -28.21875 Z M 19.640625 -22.21875 "/></g></g><path style=" stroke:none;fill-rule:evenodd;fill:#1dc690;fill-opacity:1;" d="M 82.863281 154.195312 C 75.765625 155.648438 70.152344 159.46875 65.738281 165.84375 C 64.765625 167.25 63.101562 170.492188 63.101562 170.988281 C 63.101562 171.378906 63.929688 171.792969 67.050781 172.957031 C 70.707031 174.316406 70.4375 174.335938 71.316406 172.691406 C 75.214844 165.410156 82.285156 161.511719 89.96875 162.40625 C 92.746094 162.730469 95.171875 163.476562 97.636719 164.761719 C 98.609375 165.265625 99.507812 165.621094 99.628906 165.542969 C 99.921875 165.363281 104.429688 159.5625 104.574219 159.179688 C 104.777344 158.644531 100.960938 156.578125 97.527344 155.363281 C 92.851562 153.710938 87.355469 153.273438 82.863281 154.195312 Z M 82.863281 154.195312 "/><path style=" stroke:none;fill-rule:evenodd;fill:#1dc690;fill-opacity:1;" d="M 104.523438 163.375 C 103.292969 164.894531 102.09375 166.394531 101.859375 166.699219 L 101.4375 167.257812 L 102.546875 168.527344 C 104.003906 170.199219 105.902344 172.992188 106.628906 174.539062 C 106.953125 175.21875 107.183594 175.804688 107.148438 175.839844 C 107.109375 175.875 101.859375 175.980469 95.480469 176.074219 L 83.882812 176.242188 L 83.550781 176.242188 C 83.550781 176.851562 83.550781 179.0625 83.550781 181.042969 L 83.550781 184.652344 L 97.371094 198.507812 C 104.972656 206.128906 111.269531 212.367188 111.363281 212.367188 C 111.457031 212.367188 111.535156 209.84375 111.535156 206.761719 L 111.535156 201.15625 L 108.175781 197.65625 C 106.328125 195.730469 103.828125 193.125 102.621094 191.867188 C 101.414062 190.605469 99.335938 188.441406 98 187.058594 L 95.570312 184.539062 L 106.007812 184.421875 L 116.449219 184.308594 L 116.398438 181.558594 C 116.28125 174.613281 113.777344 168.1875 108.96875 162.492188 C 108.089844 161.453125 107.238281 160.605469 107.070312 160.605469 C 106.902344 160.605469 105.757812 161.851562 104.523438 163.375 Z M 104.523438 163.375 "/><path style=" stroke:none;fill-rule:nonzero;fill:#373643;fill-opacity:1;" d="M 100.382812 208.210938 C 100.53125 208.316406 100.503906 208.546875 100.332031 208.605469 C 95.464844 210.367188 87.15625 211.207031 82.25 210.210938 C 77.210938 209.191406 72.566406 206.746094 68.867188 203.164062 C 65.167969 199.582031 62.566406 195.015625 61.371094 190 C 60.199219 185.074219 60.316406 178.957031 61.917969 174.125 C 61.964844 173.992188 62.117188 173.933594 62.238281 173.996094 C 62.816406 174.300781 64.351562 175.089844 65.5 175.59375 C 66.816406 176.167969 68.886719 176.890625 69.554688 177.121094 C 69.675781 177.164062 69.738281 177.292969 69.699219 177.414062 C 68.609375 180.734375 68.667969 184.671875 69.476562 188.058594 C 70.300781 191.523438 72.097656 194.679688 74.65625 197.15625 C 77.210938 199.628906 80.417969 201.320312 83.902344 202.023438 C 87.363281 202.726562 88.378906 202.617188 93.882812 202.503906 C 93.949219 202.503906 94.015625 202.53125 94.058594 202.578125 C 94.394531 202.949219 95.882812 204.574219 97.027344 205.59375 C 98.054688 206.507812 99.679688 207.703125 100.382812 208.210938 Z M 100.382812 208.210938 "/></g></svg>