<?xml version="1.0" encoding="utf-8"?>
<!-- Generator: Adobe Illustrator 28.0.0, SVG Export Plug-In . SVG Version: 6.00 Build 0)  -->
<svg version="1.1" id="Layer_1" xmlns="http://www.w3.org/2000/svg" xmlns:xlink="http://www.w3.org/1999/xlink" x="0px" y="0px"
	 viewBox="0 0 576 216" style="enable-background:new 0 0 576 216;" xml:space="preserve">
<style type="text/css">
	.st0{fill:#2D3440;}
	.st1{fill:#FF6000;}
</style>
<g>
	<g>
		<path class="st0" d="M311.4,70.2c-10.4,0-18.6,4.8-24.2,11.3v-9.2l0,0h-18.6v72.5h21l0,0v-42.6c4-7.8,13.5-12.1,23.8-11.4
			c0.2-1.2,1-3.5,3.1-7.1l0,0c2.6-4.2,5.9-7.6,9.6-10.2C322.1,71.4,317.2,70.2,311.4,70.2z"/>
		<g>
			<path class="st0" d="M111.2,130.9c1.2,0,2.6-0.2,3.9-0.6V144c-3.3,1.2-7.6,2.1-11.6,2.1c-7.4,0-13-2.7-16-8.2
				c-7.1,5.6-15.4,8.9-26.1,8.9c-13.6,0-25.4-7.9-25.4-22.2c0-18.4,17.4-24.2,31.9-24.2c5.7,0,12.1,0.8,17.2,2V100
				c0-7.3-5.7-12.2-17.1-12.2c-10,0-18.9,2.7-25.7,5.4V75.1c5.9-2,16.9-4.8,28.1-4.8c21.7,0,35.6,8.9,35.6,32.8v23.1
				C106.1,129.9,108.5,130.9,111.2,130.9z M57.4,123.1c0,5.4,5,8.9,11.3,8.9c5.9,0,11.5-1.7,16.3-5.9v-11.3c-3.2-0.8-8-1.7-12.4-1.7
				C65,113.1,57.4,115.7,57.4,123.1z"/>
			<path class="st0" d="M148.4,70.2c10.3,0,19.3,2.6,26.7,6.2v17.2c-6.2-4.2-16.8-7.4-25.4-7.4c-4.7,0-10.1,1.4-10.1,5.7
				c0,12.1,40.9,6,40.9,32.6c0,17.1-15.6,22.3-32.9,22.3c-11,0-21.4-2.4-28.8-6.8v-17.4c7.9,5.1,18.9,7.7,27.6,7.7
				c7.7,0,12.7-1.4,12.7-5.4c0-11.6-40.9-6.5-40.9-32.5C118.1,75.8,133.1,70.2,148.4,70.2z"/>
			<path class="st0" d="M353.3,70.2c30,0,39.7,23.7,34.9,45.1h-51c2.4,10.6,13.6,14.9,25.5,14.9c8.3,0,15.7-1.7,21.9-4.4v16.5
				c-6.8,2.9-15.7,4.5-26.6,4.5c-23,0-42-13.1-42-38.4C316,81.2,337,70.2,353.3,70.2z M354.1,86.2c-8.9,0-16.8,5.6-17.1,15.6h32.3
				C370.1,96.8,367.2,86.2,354.1,86.2z"/>
			<path class="st0" d="M447.4,72.3h21.7L437,153.6c-8.2,20.2-19.5,26.4-31.3,26.4c-3.8,0-7.5-0.8-11.3-1.7V161
				c2.9,0.6,5.7,1.1,8.6,1.1c7.5,0,13.3-5.1,17.2-15.9l0.2-0.3l-34.3-73.5h22.2l21.1,48.9L447.4,72.3z"/>
		</g>
		<path class="st0" d="M537,130.9c-2.7,0-5.1-1.1-5.1-4.8V103c0-23.9-13.9-32.8-35.6-32.8c-6.9,0-13.8,1.1-19.4,2.4l-8,20.3
			c6.7-2.6,15.4-5.2,25-5.2c11.3,0,17.1,5,17.1,12.2v2.6c-5.1-1.2-11.5-2-17.2-2c-14.5,0-31.9,5.7-31.9,24.2
			c0,14.3,11.8,22.2,25.4,22.2c10.7,0,19-3.3,26.1-8.9c3,5.4,8.6,8.2,16,8.2c4.1,0,8.3-0.9,11.6-2.1v-13.7
			C539.6,130.8,538.2,130.9,537,130.9z M510.9,126.1c-4.8,4.2-10.4,5.9-16.3,5.9c-6.3,0-11.3-3.5-11.3-8.9c0-7.4,7.6-10,15.2-10
			c4.4,0,9.2,0.9,12.4,1.7L510.9,126.1L510.9,126.1z"/>
		<path class="st0" d="M237.2,72.3c-3.8,3.7-9.1,6.1-14.8,6.1c-5.8,0-11-2.3-14.8-6.1h-26.2v19.1h30.5v53.3H233V91.5h30.5V72.3
			H237.2z"/>
	</g>
	<path class="st1" d="M240.5,54.2c0,10-8.1,18.2-18.2,18.2c-10,0-18.2-8.1-18.2-18.2c0-10,8.1-18.2,18.2-18.2S240.5,44.1,240.5,54.2
		z M222.3,47.4c-3.7,0-6.7,3-6.7,6.7s3,6.7,6.7,6.7s6.7-3,6.7-6.7C229.1,50.5,226,47.4,222.3,47.4z"/>
</g>
</svg>
