<svg xmlns="http://www.w3.org/2000/svg" xmlns:xlink="http://www.w3.org/1999/xlink" width="500" zoomAndPan="magnify" viewBox="0 0 375 374.999991" height="500" preserveAspectRatio="xMidYMid meet" version="1.2"><g id="ff31f831d4"><path style=" stroke:none;fill-rule:evenodd;fill:#1dc690;fill-opacity:1;" d="M 159.761719 46.925781 C 125.203125 53.996094 97.875 72.535156 76.378906 103.488281 C 71.640625 110.308594 63.546875 126.058594 63.546875 128.453125 C 63.546875 130.355469 67.570312 132.355469 82.777344 138.011719 C 100.570312 144.625 99.257812 144.707031 103.539062 136.734375 C 122.527344 101.375 156.945312 82.453125 194.359375 86.800781 C 207.882812 88.371094 219.691406 91.984375 231.6875 98.222656 C 236.425781 100.6875 240.789062 102.402344 241.386719 102.03125 C 242.808594 101.152344 264.753906 72.988281 265.457031 71.136719 C 266.445312 68.535156 247.867188 58.5 231.15625 52.609375 C 208.394531 44.582031 181.628906 42.449219 159.761719 46.925781 Z M 159.761719 46.925781 "/><path style=" stroke:none;fill-rule:evenodd;fill:#1dc690;fill-opacity:1;" d="M 265.214844 91.492188 C 259.214844 98.886719 253.378906 106.152344 252.246094 107.640625 L 250.1875 110.34375 L 255.585938 116.519531 C 262.679688 124.632812 271.921875 138.191406 275.476562 145.695312 C 277.039062 149 278.171875 151.84375 277.992188 152.019531 C 277.8125 152.191406 252.253906 152.699219 221.199219 153.148438 L 164.730469 153.96875 L 163.097656 153.96875 C 163.097656 156.921875 163.097656 167.648438 163.097656 177.28125 L 163.097656 194.789062 L 230.390625 262.058594 C 267.398438 299.058594 298.058594 329.332031 298.515625 329.332031 C 298.976562 329.332031 299.355469 317.085938 299.355469 302.121094 L 299.355469 274.910156 L 282.996094 257.921875 C 274 248.582031 261.832031 235.933594 255.957031 229.816406 C 250.085938 223.703125 239.957031 213.195312 233.449219 206.46875 L 221.621094 194.238281 L 272.445312 193.683594 L 323.269531 193.125 L 323.039062 179.785156 C 322.464844 146.0625 310.265625 114.859375 286.859375 87.21875 C 282.589844 82.175781 278.425781 78.046875 277.609375 78.046875 C 276.792969 78.046875 271.21875 84.097656 265.214844 91.492188 Z M 265.214844 91.492188 "/><path style=" stroke:none;fill-rule:nonzero;fill:#ffffff;fill-opacity:1;" d="M 245.058594 309.160156 C 245.777344 309.679688 245.636719 310.785156 244.800781 311.085938 C 221.121094 319.625 180.65625 323.703125 156.78125 318.878906 C 132.238281 313.921875 109.625 302.046875 91.613281 284.664062 C 73.601562 267.277344 60.941406 245.105469 55.125 220.761719 C 49.40625 196.835938 49.976562 167.152344 57.789062 143.691406 C 58.003906 143.046875 58.746094 142.75 59.347656 143.066406 C 62.167969 144.53125 69.628906 148.363281 75.226562 150.808594 C 81.640625 153.613281 91.710938 157.113281 94.96875 158.230469 C 95.554688 158.433594 95.859375 159.066406 95.664062 159.652344 C 90.367188 175.773438 90.652344 194.882812 94.585938 211.339844 C 98.605469 228.15625 107.351562 243.476562 119.796875 255.488281 C 132.238281 267.5 147.863281 275.703125 164.816406 279.128906 C 181.664062 282.53125 186.613281 282.015625 213.410156 281.464844 C 213.734375 281.457031 214.050781 281.585938 214.269531 281.824219 C 215.902344 283.625 223.144531 291.511719 228.722656 296.464844 C 233.722656 300.902344 241.625 306.6875 245.058594 309.160156 Z M 245.058594 309.160156 "/></g></svg>