<svg xmlns="http://www.w3.org/2000/svg" xmlns:xlink="http://www.w3.org/1999/xlink" width="1056" zoomAndPan="magnify" viewBox="0 0 792 262.499992" height="350" preserveAspectRatio="xMidYMid meet" version="1.2"><defs/><g id="fbc0ec31f5"><path style=" stroke:none;fill-rule:evenodd;fill:#1dc690;fill-opacity:1;" d="M 89.429688 46.730469 C 69.394531 50.839844 53.550781 61.605469 41.085938 79.585938 C 38.339844 83.550781 33.644531 92.699219 33.644531 94.089844 C 33.644531 95.195312 35.976562 96.355469 44.796875 99.640625 C 55.109375 103.484375 54.351562 103.53125 56.832031 98.902344 C 67.84375 78.359375 87.796875 67.367188 109.492188 69.894531 C 117.332031 70.804688 124.179688 72.90625 131.132812 76.527344 C 133.878906 77.960938 136.410156 78.957031 136.757812 78.742188 C 137.582031 78.230469 150.304688 61.871094 150.714844 60.792969 C 151.285156 59.285156 140.515625 53.453125 130.828125 50.03125 C 117.628906 45.367188 102.109375 44.132812 89.429688 46.730469 Z M 89.429688 46.730469 "/><path style=" stroke:none;fill-rule:evenodd;fill:#1dc690;fill-opacity:1;" d="M 150.574219 72.617188 C 147.09375 76.914062 143.710938 81.136719 143.054688 82 L 141.859375 83.570312 L 144.988281 87.15625 C 149.101562 91.871094 154.460938 99.746094 156.523438 104.105469 C 157.429688 106.023438 158.085938 107.675781 157.984375 107.777344 C 157.878906 107.878906 143.058594 108.175781 125.050781 108.4375 L 92.3125 108.910156 L 91.363281 108.910156 C 91.363281 110.628906 91.363281 116.859375 91.363281 122.453125 L 91.363281 132.625 L 130.382812 171.703125 C 151.839844 193.195312 169.617188 210.78125 169.882812 210.78125 C 170.148438 210.78125 170.367188 203.667969 170.367188 194.972656 L 170.367188 179.164062 L 160.882812 169.296875 C 155.667969 163.871094 148.613281 156.523438 145.207031 152.972656 C 141.800781 149.421875 135.929688 143.316406 132.15625 139.410156 L 125.296875 132.304688 L 154.765625 131.980469 L 184.234375 131.660156 L 184.101562 123.90625 C 183.765625 104.320312 176.695312 86.191406 163.125 70.136719 C 160.648438 67.207031 158.234375 64.808594 157.761719 64.808594 C 157.285156 64.808594 154.054688 68.324219 150.574219 72.617188 Z M 150.574219 72.617188 "/><path style=" stroke:none;fill-rule:nonzero;fill:#ffffff;fill-opacity:1;" d="M 138.886719 199.0625 C 139.304688 199.363281 139.222656 200.007812 138.738281 200.183594 C 125.007812 205.140625 101.546875 207.511719 87.703125 204.707031 C 73.472656 201.828125 60.363281 194.929688 49.917969 184.832031 C 39.476562 174.734375 32.132812 161.851562 28.761719 147.710938 C 25.445312 133.8125 25.777344 116.570312 30.308594 102.941406 C 30.433594 102.566406 30.859375 102.394531 31.210938 102.578125 C 32.84375 103.429688 37.171875 105.65625 40.414062 107.074219 C 44.136719 108.703125 49.976562 110.738281 51.863281 111.386719 C 52.203125 111.503906 52.378906 111.871094 52.265625 112.214844 C 49.195312 121.578125 49.359375 132.679688 51.640625 142.238281 C 53.972656 152.007812 59.042969 160.90625 66.257812 167.882812 C 73.472656 174.863281 82.53125 179.628906 92.363281 181.617188 C 102.128906 183.59375 105 183.292969 120.535156 182.972656 C 120.722656 182.96875 120.90625 183.046875 121.035156 183.183594 C 121.980469 184.226562 126.183594 188.8125 129.414062 191.6875 C 132.3125 194.265625 136.898438 197.625 138.886719 199.0625 Z M 138.886719 199.0625 "/><g style="fill:#ffffff;fill-opacity:1;"><g transform="translate(196.771388, 185.740379)"><path style="stroke:none" d="M 84.84375 -79.984375 L 84.84375 33.453125 L 69.1875 33.453125 L 69.1875 -11.25 C 66.851562 -8.007812 63.429688 -5.070312 58.921875 -2.4375 C 54.410156 0.195312 49.367188 1.515625 43.796875 1.515625 C 36.703125 1.515625 30.316406 -0.253906 24.640625 -3.796875 C 18.960938 -7.347656 14.445312 -12.265625 11.09375 -18.546875 C 7.75 -24.835938 6.078125 -31.988281 6.078125 -40 C 6.078125 -48.101562 7.722656 -55.269531 11.015625 -61.5 C 14.316406 -67.738281 18.78125 -72.628906 24.40625 -76.171875 C 30.03125 -79.722656 36.34375 -81.5 43.34375 -81.5 C 48.914062 -81.5 53.957031 -80.359375 58.46875 -78.078125 C 62.976562 -75.796875 66.550781 -73.085938 69.1875 -69.953125 L 69.1875 -79.984375 Z M 45.46875 -12.921875 C 50.332031 -12.921875 54.585938 -14.113281 58.234375 -16.5 C 61.890625 -18.882812 64.726562 -22.101562 66.75 -26.15625 C 68.78125 -30.207031 69.796875 -34.820312 69.796875 -40 C 69.796875 -45.164062 68.78125 -49.800781 66.75 -53.90625 C 64.726562 -58.007812 61.890625 -61.253906 58.234375 -63.640625 C 54.585938 -66.023438 50.332031 -67.21875 45.46875 -67.21875 C 40.695312 -67.21875 36.488281 -66.023438 32.84375 -63.640625 C 29.195312 -61.253906 26.332031 -58.007812 24.25 -53.90625 C 22.175781 -49.800781 21.140625 -45.164062 21.140625 -40 C 21.140625 -34.820312 22.175781 -30.207031 24.25 -26.15625 C 26.332031 -22.101562 29.195312 -18.882812 32.84375 -16.5 C 36.488281 -14.113281 40.695312 -12.921875 45.46875 -12.921875 Z M 45.46875 -12.921875 "/></g></g><g style="fill:#ffffff;fill-opacity:1;"><g transform="translate(286.791381, 185.740379)"><path style="stroke:none" d="M 93.828125 -72.53125 C 93.828125 -66.144531 91.925781 -60.210938 88.125 -54.734375 C 84.320312 -49.265625 79.378906 -45.210938 73.296875 -42.578125 L 98.078125 0.15625 L 78.15625 0 L 55.65625 -40 L 31.328125 -40 L 31.328125 0 L 14.90625 0 L 14.90625 -106.4375 L 60.21875 -106.4375 C 65.789062 -106.4375 71.132812 -105.066406 76.25 -102.328125 C 81.375 -99.597656 85.582031 -95.695312 88.875 -90.625 C 92.175781 -85.5625 93.828125 -79.53125 93.828125 -72.53125 Z M 57.484375 -90.625 L 31.328125 -90.625 L 31.328125 -55.8125 L 61.734375 -55.8125 C 66.597656 -55.8125 70.375 -57.53125 73.0625 -60.96875 C 75.75 -64.414062 77.09375 -68.320312 77.09375 -72.6875 C 77.09375 -78.257812 75.164062 -82.640625 71.3125 -85.828125 C 67.457031 -89.023438 62.847656 -90.625 57.484375 -90.625 Z M 57.484375 -90.625 "/></g></g><g style="fill:#ffffff;fill-opacity:1;"><g transform="translate(386.695365, 185.740379)"><path style="stroke:none" d="M 85.3125 -79.828125 L 85.3125 0 L 69.5 0 L 69.5 -12.3125 C 67.0625 -8.96875 63.457031 -5.828125 58.6875 -2.890625 C 53.925781 0.046875 48.40625 1.515625 42.125 1.515625 C 35.425781 1.515625 29.316406 -0.253906 23.796875 -3.796875 C 18.273438 -7.347656 13.890625 -12.265625 10.640625 -18.546875 C 7.398438 -24.835938 5.78125 -32.035156 5.78125 -40.140625 C 5.78125 -48.253906 7.453125 -55.425781 10.796875 -61.65625 C 14.140625 -67.894531 18.75 -72.757812 24.625 -76.25 C 30.507812 -79.75 37.203125 -81.5 44.703125 -81.5 C 50.273438 -81.5 55.164062 -80.28125 59.375 -77.84375 C 63.582031 -75.414062 66.957031 -72.582031 69.5 -69.34375 L 69.5 -79.828125 Z M 45.765625 -12.921875 C 50.628906 -12.921875 54.882812 -14.113281 58.53125 -16.5 C 62.1875 -18.882812 65.023438 -22.128906 67.046875 -26.234375 C 69.078125 -30.335938 70.09375 -34.972656 70.09375 -40.140625 C 70.09375 -45.210938 69.078125 -49.773438 67.046875 -53.828125 C 65.023438 -57.878906 62.1875 -61.097656 58.53125 -63.484375 C 54.882812 -65.867188 50.628906 -67.0625 45.765625 -67.0625 C 41.109375 -67.0625 36.953125 -65.894531 33.296875 -63.5625 C 29.648438 -61.226562 26.8125 -58.035156 24.78125 -53.984375 C 22.757812 -49.929688 21.75 -45.316406 21.75 -40.140625 C 21.75 -34.972656 22.757812 -30.335938 24.78125 -26.234375 C 26.8125 -22.128906 29.648438 -18.882812 33.296875 -16.5 C 36.953125 -14.113281 41.109375 -12.921875 45.765625 -12.921875 Z M 45.765625 -12.921875 "/></g></g><g style="fill:#ffffff;fill-opacity:1;"><g transform="translate(477.171551, 185.740379)"><path style="stroke:none" d="M 52.609375 -81.203125 C 59.710938 -81.203125 66.078125 -79.453125 71.703125 -75.953125 C 77.328125 -72.453125 81.757812 -67.609375 85 -61.421875 C 88.25 -55.242188 89.875 -48.101562 89.875 -40 C 89.875 -31.988281 88.25 -24.863281 85 -18.625 C 81.757812 -12.394531 77.347656 -7.503906 71.765625 -3.953125 C 66.191406 -0.398438 59.957031 1.375 53.0625 1.375 C 47.382812 1.375 42.238281 0.15625 37.625 -2.28125 C 33.019531 -4.71875 29.398438 -7.503906 26.765625 -10.640625 L 26.765625 33.453125 L 10.953125 33.453125 L 10.953125 -79.984375 L 26.765625 -79.984375 L 26.765625 -68.28125 C 29.097656 -71.625 32.59375 -74.613281 37.25 -77.25 C 41.914062 -79.882812 47.035156 -81.203125 52.609375 -81.203125 Z M 50.484375 -66.75 C 45.722656 -66.75 41.488281 -65.582031 37.78125 -63.25 C 34.082031 -60.925781 31.191406 -57.757812 29.109375 -53.75 C 27.035156 -49.75 26 -45.164062 26 -40 C 26 -34.925781 27.035156 -30.359375 29.109375 -26.296875 C 31.191406 -22.242188 34.082031 -19.023438 37.78125 -16.640625 C 41.488281 -14.265625 45.722656 -13.078125 50.484375 -13.078125 C 55.242188 -13.078125 59.445312 -14.265625 63.09375 -16.640625 C 66.75 -19.023438 69.613281 -22.242188 71.6875 -26.296875 C 73.769531 -30.359375 74.8125 -34.925781 74.8125 -40 C 74.8125 -45.164062 73.769531 -49.75 71.6875 -53.75 C 69.613281 -57.757812 66.75 -60.925781 63.09375 -63.25 C 59.445312 -65.582031 55.242188 -66.75 50.484375 -66.75 Z M 50.484375 -66.75 "/></g></g><g style="fill:#ffffff;fill-opacity:1;"><g transform="translate(567.343609, 185.740379)"><path style="stroke:none" d="M 36.5 0 L 20.828125 0 L 20.828125 -64.625 L 4.25 -64.625 L 4.25 -79.828125 L 20.828125 -79.828125 L 20.828125 -100.203125 L 36.5 -100.203125 L 36.5 -79.828125 L 55.046875 -79.828125 L 55.046875 -64.625 L 36.5 -64.625 Z M 36.5 0 "/></g></g><g style="fill:#ffffff;fill-opacity:1;"><g transform="translate(619.95651, 185.740379)"><path style="stroke:none" d="M 87.4375 -40 C 87.4375 -31.882812 85.632812 -24.707031 82.03125 -18.46875 C 78.4375 -12.238281 73.570312 -7.347656 67.4375 -3.796875 C 61.300781 -0.253906 54.429688 1.515625 46.828125 1.515625 C 39.234375 1.515625 32.34375 -0.253906 26.15625 -3.796875 C 19.96875 -7.347656 15.070312 -12.238281 11.46875 -18.46875 C 7.875 -24.707031 6.078125 -31.882812 6.078125 -40 C 6.078125 -48.101562 7.875 -55.269531 11.46875 -61.5 C 15.070312 -67.738281 19.96875 -72.628906 26.15625 -76.171875 C 32.34375 -79.722656 39.234375 -81.5 46.828125 -81.5 C 54.429688 -81.5 61.300781 -79.722656 67.4375 -76.171875 C 73.570312 -72.628906 78.4375 -67.738281 82.03125 -61.5 C 85.632812 -55.269531 87.4375 -48.101562 87.4375 -40 Z M 71.46875 -40 C 71.570312 -45.363281 70.53125 -50.097656 68.34375 -54.203125 C 66.164062 -58.316406 63.203125 -61.515625 59.453125 -63.796875 C 55.703125 -66.078125 51.492188 -67.21875 46.828125 -67.21875 C 42.171875 -67.21875 37.941406 -66.078125 34.140625 -63.796875 C 30.335938 -61.515625 27.34375 -58.316406 25.15625 -54.203125 C 22.976562 -50.097656 21.941406 -45.363281 22.046875 -40 C 21.941406 -34.71875 22.976562 -30.023438 25.15625 -25.921875 C 27.34375 -21.816406 30.335938 -18.597656 34.140625 -16.265625 C 37.941406 -13.929688 42.171875 -12.765625 46.828125 -12.765625 C 51.492188 -12.765625 55.703125 -13.929688 59.453125 -16.265625 C 63.203125 -18.597656 66.164062 -21.816406 68.34375 -25.921875 C 70.53125 -30.023438 71.570312 -34.71875 71.46875 -40 Z M 71.46875 -40 "/></g></g><g style="fill:#ffffff;fill-opacity:1;"><g transform="translate(707.695594, 185.740379)"><path style="stroke:none" d="M 55.65625 -62.953125 C 54.644531 -63.460938 53.398438 -63.894531 51.921875 -64.25 C 50.453125 -64.601562 48.910156 -64.78125 47.296875 -64.78125 C 44.046875 -64.78125 40.847656 -63.941406 37.703125 -62.265625 C 34.566406 -60.597656 31.957031 -58.21875 29.875 -55.125 C 27.800781 -52.03125 26.765625 -48.351562 26.765625 -44.09375 L 26.765625 0 L 10.953125 0 L 10.953125 -79.828125 L 26.765625 -79.828125 L 26.765625 -64.78125 C 28.992188 -69.644531 32.363281 -73.644531 36.875 -76.78125 C 41.382812 -79.925781 46.125 -81.5 51.09375 -81.5 C 54.84375 -81.5 57.734375 -80.992188 59.765625 -79.984375 Z M 55.65625 -62.953125 "/></g></g></g></svg>