<svg xmlns="http://www.w3.org/2000/svg" xmlns:xlink="http://www.w3.org/1999/xlink" width="500" zoomAndPan="magnify" viewBox="0 0 375 374.999991" height="500" preserveAspectRatio="xMidYMid meet" version="1.2"><g id="dbf537579d"><path style=" stroke:none;fill-rule:evenodd;fill:#1dc690;fill-opacity:1;" d="M 159.019531 47.957031 C 123.746094 55.183594 95.851562 74.128906 73.90625 105.761719 C 69.074219 112.734375 60.808594 128.832031 60.808594 131.277344 C 60.808594 133.222656 64.917969 135.269531 80.441406 141.046875 C 98.601562 147.804688 97.261719 147.890625 101.632812 139.742188 C 121.015625 103.605469 156.144531 84.265625 194.335938 88.710938 C 208.140625 90.316406 220.195312 94.007812 232.4375 100.382812 C 237.273438 102.902344 241.726562 104.652344 242.335938 104.277344 C 243.789062 103.378906 266.191406 74.59375 266.910156 72.699219 C 267.917969 70.042969 248.953125 59.789062 231.898438 53.765625 C 208.664062 45.5625 181.34375 43.382812 159.019531 47.957031 Z M 159.019531 47.957031 "/><path style=" stroke:none;fill-rule:evenodd;fill:#1dc690;fill-opacity:1;" d="M 266.664062 93.503906 C 260.539062 101.058594 254.582031 108.488281 253.425781 110.007812 L 251.324219 112.769531 L 256.832031 119.082031 C 264.070312 127.371094 273.507812 141.230469 277.136719 148.898438 C 278.730469 152.277344 279.890625 155.183594 279.707031 155.363281 C 279.519531 155.539062 253.433594 156.058594 221.730469 156.519531 L 164.089844 157.355469 L 162.425781 157.355469 C 162.425781 160.375 162.425781 171.335938 162.425781 181.179688 L 162.425781 199.074219 L 231.113281 267.824219 C 268.890625 305.640625 300.183594 336.578125 300.65625 336.578125 C 301.125 336.578125 301.511719 324.0625 301.511719 308.765625 L 301.511719 280.957031 L 284.8125 263.597656 C 275.628906 254.050781 263.210938 241.125 257.214844 234.875 C 251.21875 228.625 240.878906 217.886719 234.238281 211.011719 L 222.164062 198.511719 L 274.042969 197.941406 L 325.921875 197.375 L 325.6875 183.738281 C 325.097656 149.277344 312.648438 117.386719 288.757812 89.136719 C 284.394531 83.980469 280.144531 79.761719 279.3125 79.761719 C 278.480469 79.761719 272.789062 85.945312 266.664062 93.503906 Z M 266.664062 93.503906 "/><path style=" stroke:none;fill-rule:nonzero;fill:#373643;fill-opacity:1;" d="M 246.085938 315.960938 C 246.824219 316.492188 246.679688 317.625 245.824219 317.933594 C 221.652344 326.65625 180.347656 330.828125 155.976562 325.898438 C 130.925781 320.828125 107.84375 308.695312 89.460938 290.925781 C 71.074219 273.15625 58.148438 250.496094 52.210938 225.617188 C 46.375 201.164062 46.957031 170.828125 54.933594 146.851562 C 55.152344 146.191406 55.90625 145.890625 56.523438 146.214844 C 59.402344 147.710938 67.015625 151.625 72.730469 154.125 C 79.28125 156.992188 89.558594 160.570312 92.886719 161.714844 C 93.480469 161.917969 93.792969 162.566406 93.59375 163.164062 C 88.183594 179.640625 88.476562 199.171875 92.492188 215.988281 C 96.59375 233.175781 105.523438 248.832031 118.226562 261.109375 C 130.929688 273.386719 146.875 281.769531 164.183594 285.269531 C 181.378906 288.75 186.429688 288.222656 213.78125 287.65625 C 214.113281 287.652344 214.433594 287.78125 214.65625 288.027344 C 216.328125 289.863281 223.71875 297.925781 229.414062 302.988281 C 234.515625 307.523438 242.585938 313.4375 246.085938 315.960938 Z M 246.085938 315.960938 "/></g></svg>