<svg xmlns="http://www.w3.org/2000/svg" xmlns:xlink="http://www.w3.org/1999/xlink" width="1056" zoomAndPan="magnify" viewBox="0 0 792 262.499992" height="350" preserveAspectRatio="xMidYMid meet" version="1.2"><defs/><g id="a5f646db10"><g style="fill:#373643;fill-opacity:1;"><g transform="translate(196.824344, 187.15079)"><path style="stroke:none" d="M 84.84375 -79.984375 L 84.84375 33.453125 L 69.1875 33.453125 L 69.1875 -11.25 C 66.851562 -8.007812 63.429688 -5.070312 58.921875 -2.4375 C 54.410156 0.195312 49.367188 1.515625 43.796875 1.515625 C 36.691406 1.515625 30.300781 -0.253906 24.625 -3.796875 C 18.945312 -7.347656 14.4375 -12.265625 11.09375 -18.546875 C 7.75 -24.835938 6.078125 -31.984375 6.078125 -39.984375 C 6.078125 -48.097656 7.722656 -55.269531 11.015625 -61.5 C 14.316406 -67.738281 18.78125 -72.628906 24.40625 -76.171875 C 30.03125 -79.722656 36.335938 -81.5 43.328125 -81.5 C 48.910156 -81.5 53.957031 -80.359375 58.46875 -78.078125 C 62.976562 -75.796875 66.550781 -73.082031 69.1875 -69.9375 L 69.1875 -79.984375 Z M 45.46875 -12.921875 C 50.332031 -12.921875 54.585938 -14.109375 58.234375 -16.484375 C 61.878906 -18.867188 64.71875 -22.085938 66.75 -26.140625 C 68.78125 -30.203125 69.796875 -34.816406 69.796875 -39.984375 C 69.796875 -45.160156 68.78125 -49.800781 66.75 -53.90625 C 64.71875 -58.007812 61.878906 -61.25 58.234375 -63.625 C 54.585938 -66.007812 50.332031 -67.203125 45.46875 -67.203125 C 40.695312 -67.203125 36.488281 -66.007812 32.84375 -63.625 C 29.195312 -61.25 26.332031 -58.007812 24.25 -53.90625 C 22.175781 -49.800781 21.140625 -45.160156 21.140625 -39.984375 C 21.140625 -34.816406 22.175781 -30.203125 24.25 -26.140625 C 26.332031 -22.085938 29.195312 -18.867188 32.84375 -16.484375 C 36.488281 -14.109375 40.695312 -12.921875 45.46875 -12.921875 Z M 45.46875 -12.921875 "/></g></g><g style="fill:#373643;fill-opacity:1;"><g transform="translate(286.836315, 187.15079)"><path style="stroke:none" d="M 93.8125 -72.53125 C 93.8125 -66.144531 91.910156 -60.210938 88.109375 -54.734375 C 84.304688 -49.265625 79.363281 -45.210938 73.28125 -42.578125 L 98.0625 0.15625 L 78.15625 0 L 55.65625 -39.984375 L 31.328125 -39.984375 L 31.328125 0 L 14.90625 0 L 14.90625 -106.4375 L 60.203125 -106.4375 C 65.785156 -106.4375 71.132812 -105.066406 76.25 -102.328125 C 81.375 -99.585938 85.582031 -95.679688 88.875 -90.609375 C 92.164062 -85.546875 93.8125 -79.519531 93.8125 -72.53125 Z M 57.46875 -90.625 L 31.328125 -90.625 L 31.328125 -55.796875 L 61.734375 -55.796875 C 66.597656 -55.796875 70.375 -57.519531 73.0625 -60.96875 C 75.75 -64.414062 77.09375 -68.316406 77.09375 -72.671875 C 77.09375 -78.253906 75.164062 -82.640625 71.3125 -85.828125 C 67.457031 -89.023438 62.84375 -90.625 57.46875 -90.625 Z M 57.46875 -90.625 "/></g></g><g style="fill:#373643;fill-opacity:1;"><g transform="translate(386.731397, 187.15079)"><path style="stroke:none" d="M 85.296875 -79.828125 L 85.296875 0 L 69.484375 0 L 69.484375 -12.3125 C 67.054688 -8.96875 63.457031 -5.828125 58.6875 -2.890625 C 53.925781 0.046875 48.398438 1.515625 42.109375 1.515625 C 35.421875 1.515625 29.316406 -0.253906 23.796875 -3.796875 C 18.273438 -7.347656 13.890625 -12.265625 10.640625 -18.546875 C 7.398438 -24.835938 5.78125 -32.035156 5.78125 -40.140625 C 5.78125 -48.242188 7.453125 -55.410156 10.796875 -61.640625 C 14.140625 -67.878906 18.75 -72.75 24.625 -76.25 C 30.507812 -79.75 37.203125 -81.5 44.703125 -81.5 C 50.273438 -81.5 55.164062 -80.28125 59.375 -77.84375 C 63.582031 -75.414062 66.953125 -72.578125 69.484375 -69.328125 L 69.484375 -79.828125 Z M 45.765625 -12.921875 C 50.628906 -12.921875 54.882812 -14.109375 58.53125 -16.484375 C 62.1875 -18.867188 65.023438 -22.113281 67.046875 -26.21875 C 69.078125 -30.332031 70.09375 -34.972656 70.09375 -40.140625 C 70.09375 -45.210938 69.078125 -49.773438 67.046875 -53.828125 C 65.023438 -57.878906 62.1875 -61.09375 58.53125 -63.46875 C 54.882812 -65.851562 50.628906 -67.046875 45.765625 -67.046875 C 41.097656 -67.046875 36.941406 -65.878906 33.296875 -63.546875 C 29.648438 -61.222656 26.8125 -58.03125 24.78125 -53.96875 C 22.757812 -49.914062 21.75 -45.304688 21.75 -40.140625 C 21.75 -34.972656 22.757812 -30.332031 24.78125 -26.21875 C 26.8125 -22.113281 29.648438 -18.867188 33.296875 -16.484375 C 36.941406 -14.109375 41.097656 -12.921875 45.765625 -12.921875 Z M 45.765625 -12.921875 "/></g></g><g style="fill:#373643;fill-opacity:1;"><g transform="translate(477.199521, 187.15079)"><path style="stroke:none" d="M 52.609375 -81.1875 C 59.703125 -81.1875 66.0625 -79.4375 71.6875 -75.9375 C 77.3125 -72.445312 81.742188 -67.609375 84.984375 -61.421875 C 88.234375 -55.242188 89.859375 -48.097656 89.859375 -39.984375 C 89.859375 -31.984375 88.234375 -24.863281 84.984375 -18.625 C 81.742188 -12.394531 77.335938 -7.503906 71.765625 -3.953125 C 66.191406 -0.398438 59.957031 1.375 53.0625 1.375 C 47.382812 1.375 42.238281 0.15625 37.625 -2.28125 C 33.019531 -4.71875 29.398438 -7.503906 26.765625 -10.640625 L 26.765625 33.453125 L 10.953125 33.453125 L 10.953125 -79.984375 L 26.765625 -79.984375 L 26.765625 -68.265625 C 29.085938 -71.609375 32.582031 -74.597656 37.25 -77.234375 C 41.914062 -79.867188 47.035156 -81.1875 52.609375 -81.1875 Z M 50.484375 -66.75 C 45.710938 -66.75 41.476562 -65.582031 37.78125 -63.25 C 34.082031 -60.914062 31.191406 -57.75 29.109375 -53.75 C 27.035156 -49.75 26 -45.160156 26 -39.984375 C 26 -34.921875 27.035156 -30.359375 29.109375 -26.296875 C 31.191406 -22.242188 34.082031 -19.023438 37.78125 -16.640625 C 41.476562 -14.265625 45.710938 -13.078125 50.484375 -13.078125 C 55.242188 -13.078125 59.445312 -14.265625 63.09375 -16.640625 C 66.75 -19.023438 69.613281 -22.242188 71.6875 -26.296875 C 73.769531 -30.359375 74.8125 -34.921875 74.8125 -39.984375 C 74.8125 -45.160156 73.769531 -49.75 71.6875 -53.75 C 69.613281 -57.75 66.75 -60.914062 63.09375 -63.25 C 59.445312 -65.582031 55.242188 -66.75 50.484375 -66.75 Z M 50.484375 -66.75 "/></g></g><g style="fill:#373643;fill-opacity:1;"><g transform="translate(567.363545, 187.15079)"><path style="stroke:none" d="M 36.484375 0 L 20.828125 0 L 20.828125 -64.625 L 4.25 -64.625 L 4.25 -79.828125 L 20.828125 -79.828125 L 20.828125 -100.203125 L 36.484375 -100.203125 L 36.484375 -79.828125 L 55.046875 -79.828125 L 55.046875 -64.625 L 36.484375 -64.625 Z M 36.484375 0 "/></g></g><g style="fill:#373643;fill-opacity:1;"><g transform="translate(619.971757, 187.15079)"><path style="stroke:none" d="M 87.421875 -39.984375 C 87.421875 -31.878906 85.617188 -24.707031 82.015625 -18.46875 C 78.421875 -12.238281 73.554688 -7.347656 67.421875 -3.796875 C 61.296875 -0.253906 54.429688 1.515625 46.828125 1.515625 C 39.222656 1.515625 32.328125 -0.253906 26.140625 -3.796875 C 19.960938 -7.347656 15.070312 -12.238281 11.46875 -18.46875 C 7.875 -24.707031 6.078125 -31.878906 6.078125 -39.984375 C 6.078125 -48.097656 7.875 -55.269531 11.46875 -61.5 C 15.070312 -67.738281 19.960938 -72.628906 26.140625 -76.171875 C 32.328125 -79.722656 39.222656 -81.5 46.828125 -81.5 C 54.429688 -81.5 61.296875 -79.722656 67.421875 -76.171875 C 73.554688 -72.628906 78.421875 -67.738281 82.015625 -61.5 C 85.617188 -55.269531 87.421875 -48.097656 87.421875 -39.984375 Z M 71.46875 -39.984375 C 71.5625 -45.359375 70.519531 -50.097656 68.34375 -54.203125 C 66.164062 -58.304688 63.203125 -61.5 59.453125 -63.78125 C 55.703125 -66.0625 51.492188 -67.203125 46.828125 -67.203125 C 42.171875 -67.203125 37.941406 -66.0625 34.140625 -63.78125 C 30.335938 -61.5 27.34375 -58.304688 25.15625 -54.203125 C 22.976562 -50.097656 21.941406 -45.359375 22.046875 -39.984375 C 21.941406 -34.710938 22.976562 -30.023438 25.15625 -25.921875 C 27.34375 -21.816406 30.335938 -18.597656 34.140625 -16.265625 C 37.941406 -13.929688 42.171875 -12.765625 46.828125 -12.765625 C 51.492188 -12.765625 55.703125 -13.929688 59.453125 -16.265625 C 63.203125 -18.597656 66.164062 -21.816406 68.34375 -25.921875 C 70.519531 -30.023438 71.5625 -34.710938 71.46875 -39.984375 Z M 71.46875 -39.984375 "/></g></g><g style="fill:#373643;fill-opacity:1;"><g transform="translate(707.703023, 187.15079)"><path style="stroke:none" d="M 55.65625 -62.953125 C 54.632812 -63.453125 53.390625 -63.878906 51.921875 -64.234375 C 50.453125 -64.585938 48.90625 -64.765625 47.28125 -64.765625 C 44.039062 -64.765625 40.847656 -63.925781 37.703125 -62.25 C 34.566406 -60.582031 31.957031 -58.203125 29.875 -55.109375 C 27.800781 -52.023438 26.765625 -48.351562 26.765625 -44.09375 L 26.765625 0 L 10.953125 0 L 10.953125 -79.828125 L 26.765625 -79.828125 L 26.765625 -64.765625 C 28.992188 -69.628906 32.363281 -73.632812 36.875 -76.78125 C 41.382812 -79.925781 46.125 -81.5 51.09375 -81.5 C 54.84375 -81.5 57.726562 -80.992188 59.75 -79.984375 Z M 55.65625 -62.953125 "/></g></g><path style=" stroke:none;fill-rule:evenodd;fill:#1dc690;fill-opacity:1;" d="M 89.429688 48.171875 C 69.394531 52.277344 53.550781 63.046875 41.085938 81.027344 C 38.339844 84.988281 33.644531 94.140625 33.644531 95.53125 C 33.644531 96.636719 35.976562 97.796875 44.796875 101.082031 C 55.109375 104.925781 54.351562 104.972656 56.832031 100.339844 C 67.84375 79.800781 87.796875 68.808594 109.492188 71.335938 C 117.332031 72.246094 124.179688 74.347656 131.132812 77.96875 C 133.878906 79.402344 136.410156 80.398438 136.757812 80.183594 C 137.582031 79.671875 150.304688 63.308594 150.714844 62.234375 C 151.285156 60.726562 140.515625 54.894531 130.828125 51.472656 C 117.628906 46.808594 102.109375 45.570312 89.429688 48.171875 Z M 89.429688 48.171875 "/><path style=" stroke:none;fill-rule:evenodd;fill:#1dc690;fill-opacity:1;" d="M 150.574219 74.058594 C 147.09375 78.355469 143.710938 82.574219 143.054688 83.441406 L 141.859375 85.011719 L 144.988281 88.597656 C 149.101562 93.308594 154.460938 101.1875 156.523438 105.546875 C 157.429688 107.464844 158.085938 109.117188 157.984375 109.21875 C 157.878906 109.320312 143.058594 109.617188 125.050781 109.878906 L 92.3125 110.351562 L 91.363281 110.351562 C 91.363281 112.070312 91.363281 118.300781 91.363281 123.894531 L 91.363281 134.066406 L 130.382812 173.144531 C 151.839844 194.636719 169.617188 212.222656 169.882812 212.222656 C 170.148438 212.222656 170.367188 205.109375 170.367188 196.414062 L 170.367188 180.609375 L 160.882812 170.742188 C 155.667969 165.3125 148.613281 157.964844 145.207031 154.414062 C 141.800781 150.863281 135.929688 144.757812 132.15625 140.851562 L 125.296875 133.746094 L 154.765625 133.421875 L 184.234375 133.101562 L 184.101562 125.347656 C 183.765625 105.761719 176.695312 87.632812 163.125 71.578125 C 160.648438 68.648438 158.234375 66.25 157.761719 66.25 C 157.285156 66.25 154.054688 69.761719 150.574219 74.058594 Z M 150.574219 74.058594 "/><path style=" stroke:none;fill-rule:nonzero;fill:#373643;fill-opacity:1;" d="M 138.886719 200.503906 C 139.304688 200.804688 139.222656 201.449219 138.738281 201.625 C 125.007812 206.582031 101.546875 208.953125 87.703125 206.152344 C 73.472656 203.269531 60.363281 196.371094 49.917969 186.273438 C 39.476562 176.175781 32.132812 163.292969 28.761719 149.152344 C 25.445312 135.253906 25.777344 118.011719 30.308594 104.382812 C 30.433594 104.007812 30.859375 103.835938 31.210938 104.019531 C 32.84375 104.871094 37.171875 107.097656 40.414062 108.515625 C 44.136719 110.144531 49.976562 112.179688 51.863281 112.828125 C 52.203125 112.945312 52.378906 113.3125 52.265625 113.65625 C 49.195312 123.019531 49.359375 134.121094 51.640625 143.679688 C 53.972656 153.449219 59.042969 162.347656 66.257812 169.324219 C 73.472656 176.304688 82.53125 181.070312 92.363281 183.058594 C 102.128906 185.035156 105 184.738281 120.535156 184.417969 C 120.722656 184.414062 120.90625 184.488281 121.035156 184.625 C 121.980469 185.671875 126.183594 190.253906 129.414062 193.128906 C 132.3125 195.707031 136.898438 199.070312 138.886719 200.503906 Z M 138.886719 200.503906 "/></g></svg>